<svg xmlns="http://www.w3.org/2000/svg" xmlns:xlink="http://www.w3.org/1999/xlink" contentStyleType="text/css" data-diagram-type="DESCRIPTION" height="901px" preserveAspectRatio="none" style="width:6560px;height:901px;background:#1B1B1B;" version="1.1" viewBox="0 0 6560 901" width="6560px" zoomAndPan="magnify"><title>Donna System (Phase 5/6): Extended Component Diagram</title><defs/><g><rect fill="#1B1B1B" height="901" style="stroke:#FFFFFF00;stroke-width:1;" width="6560" x="0" y="0"/><text fill="#FFFFFF" font-family="sans-serif" font-size="14" font-weight="bold" lengthAdjust="spacing" textLength="460.0313" x="3043.2422" y="22.9951">Donna System (Phase 5/6): Extended Component Diagram</text><!--cluster Donna System--><g id="cluster_Donna System"><rect fill="#FFFFFF" fill-opacity="0.00000" height="851.65" rx="2.5" ry="2.5" style="stroke:#E7E7E7;stroke-width:1;" width="4988" x="7" y="44.2969"/><text fill="#FFFFFF" font-family="sans-serif" font-size="14" font-weight="bold" lengthAdjust="spacing" textLength="113.8115" x="2444.0942" y="59.292">Donna System</text></g><!--cluster FE--><g id="cluster_FE"><rect fill="#C8E6C9" height="138.4" rx="2.5" ry="2.5" style="stroke:#E7E7E7;stroke-width:1;" width="393" x="3815" y="95.2969"/><text fill="#FFFFFF" font-family="sans-serif" font-size="14" font-style="italic" lengthAdjust="spacing" textLength="77.1162" x="3972.9419" y="110.292">&#171;frontend&#187;</text><text fill="#FFFFFF" font-family="sans-serif" font-size="14" font-weight="bold" lengthAdjust="spacing" textLength="186.6826" x="3918.1587" y="126.5889">Web &amp; Mobile Frontend</text></g><!--cluster BE--><g id="cluster_BE"><rect fill="#000000" height="565.25" rx="2.5" ry="2.5" style="stroke:#E7E7E7;stroke-width:1;" width="4340" x="39" y="298.6969"/><text fill="#FFFFFF" font-family="sans-serif" font-size="14" font-style="italic" lengthAdjust="spacing" textLength="76.7744" x="2170.6128" y="313.692">&#171;backend&#187;</text><text fill="#FFFFFF" font-family="sans-serif" font-size="14" font-weight="bold" lengthAdjust="spacing" textLength="145.2227" x="2136.3887" y="329.9889">Backend (FastAPI)</text></g><!--cluster SchedEng--><g id="cluster_SchedEng"><rect fill="#000000" height="358.76" rx="2.5" ry="2.5" style="stroke:#E7E7E7;stroke-width:1;" width="1283" x="79" y="465.1869"/><text fill="#FFFFFF" font-family="sans-serif" font-size="14" font-style="italic" lengthAdjust="spacing" textLength="76.7744" x="682.1128" y="480.182">&#171;backend&#187;</text><text fill="#FFFFFF" font-family="sans-serif" font-size="14" font-weight="bold" lengthAdjust="spacing" textLength="146.1045" x="647.4478" y="496.4789">Scheduling Engine</text></g><!--cluster TimeBlock--><g id="cluster_TimeBlock"><rect fill="#000000" height="123.27" rx="2.5" ry="2.5" style="stroke:#E7E7E7;stroke-width:1;" width="296" x="119" y="660.6769"/><text fill="#FFFFFF" font-family="sans-serif" font-size="14" font-style="italic" lengthAdjust="spacing" textLength="76.7744" x="228.6128" y="675.672">&#171;backend&#187;</text><text fill="#FFFFFF" font-family="sans-serif" font-size="14" font-weight="bold" lengthAdjust="spacing" textLength="103.3389" x="215.3306" y="691.9689">Time-Blocker</text></g><!--cluster ConflictResolver--><g id="cluster_ConflictResolver"><rect fill="#000000" height="123.27" rx="2.5" ry="2.5" style="stroke:#E7E7E7;stroke-width:1;" width="345" x="455" y="660.6769"/><text fill="#FFFFFF" font-family="sans-serif" font-size="14" font-style="italic" lengthAdjust="spacing" textLength="76.7744" x="589.1128" y="675.672">&#171;backend&#187;</text><text fill="#FFFFFF" font-family="sans-serif" font-size="14" font-weight="bold" lengthAdjust="spacing" textLength="133.9639" x="560.5181" y="691.9689">Conflict Resolver</text></g><!--cluster TaskPri--><g id="cluster_TaskPri"><rect fill="#000000" height="123.27" rx="2.5" ry="2.5" style="stroke:#E7E7E7;stroke-width:1;" width="482" x="840" y="660.6769"/><text fill="#FFFFFF" font-family="sans-serif" font-size="14" font-style="italic" lengthAdjust="spacing" textLength="76.7744" x="1042.6128" y="675.672">&#171;backend&#187;</text><text fill="#FFFFFF" font-family="sans-serif" font-size="14" font-weight="bold" lengthAdjust="spacing" textLength="120.8389" x="1020.5806" y="691.9689">Task Prioritizer</text></g><!--cluster NLPEng--><g id="cluster_NLPEng"><rect fill="#000000" height="351.19" rx="2.5" ry="2.5" style="stroke:#E7E7E7;stroke-width:1;" width="1066" x="1402" y="465.1869"/><text fill="#FFFFFF" font-family="sans-serif" font-size="14" font-style="italic" lengthAdjust="spacing" textLength="76.7744" x="1896.6128" y="480.182">&#171;backend&#187;</text><text fill="#FFFFFF" font-family="sans-serif" font-size="14" font-weight="bold" lengthAdjust="spacing" textLength="89.585" x="1890.2075" y="496.4789">NLP Engine</text></g><!--cluster IntentClf--><g id="cluster_IntentClf"><rect fill="#000000" height="108.13" rx="2.5" ry="2.5" style="stroke:#E7E7E7;stroke-width:1;" width="509" x="1442" y="668.2469"/><text fill="#FFFFFF" font-family="sans-serif" font-size="14" font-style="italic" lengthAdjust="spacing" textLength="76.7744" x="1658.1128" y="683.242">&#171;backend&#187;</text><text fill="#FFFFFF" font-family="sans-serif" font-size="14" font-weight="bold" lengthAdjust="spacing" textLength="126.1709" x="1633.4146" y="699.5389">Intent Classifier</text></g><!--cluster EntityExt--><g id="cluster_EntityExt"><rect fill="#000000" height="108.13" rx="2.5" ry="2.5" style="stroke:#E7E7E7;stroke-width:1;" width="437" x="1991" y="668.2469"/><text fill="#FFFFFF" font-family="sans-serif" font-size="14" font-style="italic" lengthAdjust="spacing" textLength="76.7744" x="2171.1128" y="683.242">&#171;backend&#187;</text><text fill="#FFFFFF" font-family="sans-serif" font-size="14" font-weight="bold" lengthAdjust="spacing" textLength="124.8652" x="2147.0674" y="699.5389">Entity Extractor</text></g><!--cluster Notif--><g id="cluster_Notif"><rect fill="#000000" height="123.26" rx="2.5" ry="2.5" style="stroke:#E7E7E7;stroke-width:1;" width="379" x="3462" y="429.4169"/><text fill="#FFFFFF" font-family="sans-serif" font-size="14" font-style="italic" lengthAdjust="spacing" textLength="76.7744" x="3613.1128" y="444.412">&#171;backend&#187;</text><text fill="#FFFFFF" font-family="sans-serif" font-size="14" font-weight="bold" lengthAdjust="spacing" textLength="155.6133" x="3573.6934" y="460.7089">Notification Service</text></g><!--cluster FoundryInt--><g id="cluster_FoundryInt"><rect fill="#000000" height="358.76" rx="2.5" ry="2.5" style="stroke:#E7E7E7;stroke-width:1;" width="914" x="2508" y="465.1869"/><text fill="#FFFFFF" font-family="sans-serif" font-size="14" font-style="italic" lengthAdjust="spacing" textLength="76.7744" x="2926.6128" y="480.182">&#171;backend&#187;</text><text fill="#FFFFFF" font-family="sans-serif" font-size="14" font-weight="bold" lengthAdjust="spacing" textLength="221.5596" x="2854.2202" y="496.4789">Foundry Integration Module</text></g><!--cluster FoundryETL--><g id="cluster_FoundryETL"><rect fill="#000000" height="123.27" rx="2.5" ry="2.5" style="stroke:#E7E7E7;stroke-width:1;" width="347" x="2548" y="660.6769"/><text fill="#FFFFFF" font-family="sans-serif" font-size="14" font-style="italic" lengthAdjust="spacing" textLength="76.7744" x="2683.1128" y="675.672">&#171;backend&#187;</text><text fill="#FFFFFF" font-family="sans-serif" font-size="14" font-weight="bold" lengthAdjust="spacing" textLength="96.5439" x="2673.228" y="691.9689">ETL Pipeline</text></g><!--cluster FoundryAnalytics--><g id="cluster_FoundryAnalytics"><rect fill="#000000" height="123.27" rx="2.5" ry="2.5" style="stroke:#E7E7E7;stroke-width:1;" width="447" x="2935" y="660.6769"/><text fill="#FFFFFF" font-family="sans-serif" font-size="14" font-style="italic" lengthAdjust="spacing" textLength="76.7744" x="3120.1128" y="675.672">&#171;backend&#187;</text><text fill="#FFFFFF" font-family="sans-serif" font-size="14" font-weight="bold" lengthAdjust="spacing" textLength="152.8242" x="3082.0879" y="691.9689">Analytics Feedback</text></g><!--cluster DB--><g id="cluster_DB"><path d="M4533,663.2469 C4533,653.2469 4748,653.2469 4748,653.2469 C4748,653.2469 4963,653.2469 4963,663.2469 L4963,766.3769 C4963,776.3769 4748,776.3769 4748,776.3769 C4748,776.3769 4533,776.3769 4533,766.3769 L4533,663.2469 " fill="#FFFFFF" fill-opacity="0.00000" style="stroke:#E7E7E7;stroke-width:1;"/><path d="M4533,663.2469 C4533,673.2469 4748,673.2469 4748,673.2469 C4748,673.2469 4963,673.2469 4963,663.2469 " fill="#FFFFFF" fill-opacity="0.00000" style="stroke:#E7E7E7;stroke-width:1;"/><text fill="#FFFFFF" font-family="sans-serif" font-size="14" font-style="italic" lengthAdjust="spacing" textLength="70.3145" x="4712.8428" y="688.242">&#171;storage&#187;</text><text fill="#FFFFFF" font-family="sans-serif" font-size="14" font-weight="bold" lengthAdjust="spacing" textLength="92.2305" x="4701.8848" y="704.5389">PostgreSQL</text></g><!--cluster 3rd-Party Services--><g id="cluster_3rd-Party Services"><rect fill="#FFFFFF" fill-opacity="0.00000" height="206.27" rx="2.5" ry="2.5" style="stroke:#E7E7E7;stroke-width:1;" width="1510" x="5019" y="609.6769"/><text fill="#FFFFFF" font-family="sans-serif" font-size="14" font-weight="bold" lengthAdjust="spacing" textLength="146.3164" x="5700.8418" y="624.672">3rd-Party Services</text></g><!--cluster FCM--><g id="cluster_FCM"><rect fill="#FFE0B2" height="108.13" rx="2.5" ry="2.5" style="stroke:#E7E7E7;stroke-width:1;" width="306" x="5157" y="668.2469"/><text fill="#FFFFFF" font-family="sans-serif" font-size="14" font-style="italic" lengthAdjust="spacing" textLength="75.2295" x="5272.3853" y="683.242">&#171;external&#187;</text><text fill="#FFFFFF" font-family="sans-serif" font-size="14" font-weight="bold" lengthAdjust="spacing" textLength="106.7021" x="5256.6489" y="699.5389">Firebase FCM</text></g><!--cluster Palantir--><g id="cluster_Palantir"><rect fill="#FFE0B2" height="123.27" rx="2.5" ry="2.5" style="stroke:#E7E7E7;stroke-width:1;" width="389" x="5503" y="660.6769"/><text fill="#FFFFFF" font-family="sans-serif" font-size="14" font-style="italic" lengthAdjust="spacing" textLength="75.2295" x="5659.8853" y="675.672">&#171;external&#187;</text><text fill="#FFFFFF" font-family="sans-serif" font-size="14" font-weight="bold" lengthAdjust="spacing" textLength="132.3574" x="5631.3213" y="691.9689">Palantir Foundry</text></g><!--entity Redis--><g id="elem_Redis"><rect fill="#313139" height="48.5938" rx="2.5" ry="2.5" style="stroke:#E7E7E7;stroke-width:0.5;" width="102.3994" x="4406.8" y="717.5169"/><rect fill="#313139" height="48.5938" rx="2.5" ry="2.5" style="stroke:#E7E7E7;stroke-width:0.5;" width="102.3994" x="4402.8" y="713.5169"/><text fill="#FFFFFF" font-family="sans-serif" font-size="14" font-style="italic" lengthAdjust="spacing" textLength="70.3145" x="4418.8425" y="734.512">&#171;storage&#187;</text><text fill="#FFFFFF" font-family="sans-serif" font-size="14" lengthAdjust="spacing" textLength="86.3994" x="4410.8" y="750.8089">Redis Cache</text></g><g id="elem_FE_note"><path d="M3839.21,154.2969 L3839.21,209.6953 L4164.7959,209.6953 L4164.7959,164.2969 L4154.7959,154.2969 L3839.21,154.2969 " fill="#714137" style="stroke:#E7E7E7;stroke-width:0.5;"/><path d="M4154.7959,154.2969 L4154.7959,164.2969 L4164.7959,164.2969 L4154.7959,154.2969 " fill="#714137" style="stroke:#E7E7E7;stroke-width:1;"/><text fill="#FFFFFF" font-family="sans-serif" font-size="13" lengthAdjust="spacing" textLength="247.457" x="3845.21" y="171.3638">- React (web) &amp; React Native (mobile)</text><text fill="#FFFFFF" font-family="sans-serif" font-size="13" lengthAdjust="spacing" textLength="292.6904" x="3845.21" y="186.4966">- Core UI/UX for tasks, calendar, notifications</text><text fill="#FFFFFF" font-family="sans-serif" font-size="13" lengthAdjust="spacing" textLength="304.5859" x="3845.21" y="201.6294">- Communicates with backend via HTTPS/REST</text></g><g id="elem_BE_note"><path d="M3868.53,488.4169 L3868.53,528.6825 L4355.4734,528.6825 L4355.4734,498.4169 L4345.4734,488.4169 L3868.53,488.4169 " fill="#714137" style="stroke:#E7E7E7;stroke-width:0.5;"/><path d="M4345.4734,488.4169 L4345.4734,498.4169 L4355.4734,498.4169 L4345.4734,488.4169 " fill="#714137" style="stroke:#E7E7E7;stroke-width:1;"/><text fill="#FFFFFF" font-family="sans-serif" font-size="13" lengthAdjust="spacing" textLength="246.0352" x="3874.53" y="505.4838">- Primary entry point for internal logic</text><text fill="#FFFFFF" font-family="sans-serif" font-size="13" lengthAdjust="spacing" textLength="465.9434" x="3874.53" y="520.6166">- Exposes REST endpoints for tasks, scheduling, notifications, user auth</text></g><g id="elem_TimeBlock_note"><path d="M142.68,719.6769 L142.68,759.9425 L371.3182,759.9425 L371.3182,729.6769 L361.3182,719.6769 L142.68,719.6769 " fill="#714137" style="stroke:#E7E7E7;stroke-width:0.5;"/><path d="M361.3182,719.6769 L361.3182,729.6769 L371.3182,729.6769 L361.3182,719.6769 " fill="#714137" style="stroke:#E7E7E7;stroke-width:1;"/><text fill="#FFFFFF" font-family="sans-serif" font-size="13" lengthAdjust="spacing" textLength="199.0371" x="148.68" y="736.7438">- Analyzes user free/busy slots</text><text fill="#FFFFFF" font-family="sans-serif" font-size="13" lengthAdjust="spacing" textLength="207.6382" x="148.68" y="751.8766">- Suggests time blocks for tasks</text></g><g id="elem_Conflict_note"><path d="M479.05,719.6769 L479.05,759.9425 L756.9523,759.9425 L756.9523,729.6769 L746.9523,719.6769 L479.05,719.6769 " fill="#714137" style="stroke:#E7E7E7;stroke-width:0.5;"/><path d="M746.9523,719.6769 L746.9523,729.6769 L756.9523,729.6769 L746.9523,719.6769 " fill="#714137" style="stroke:#E7E7E7;stroke-width:1;"/><text fill="#FFFFFF" font-family="sans-serif" font-size="13" lengthAdjust="spacing" textLength="118.6694" x="485.05" y="736.7438">- Detects overlaps</text><text fill="#FFFFFF" font-family="sans-serif" font-size="13" lengthAdjust="spacing" textLength="256.9023" x="485.05" y="751.8766">- Re-adjusts schedules for missed tasks</text></g><g id="elem_TaskPri_note"><path d="M863.78,719.6769 L863.78,759.9425 L1278.2204,759.9425 L1278.2204,729.6769 L1268.2204,719.6769 L863.78,719.6769 " fill="#714137" style="stroke:#E7E7E7;stroke-width:0.5;"/><path d="M1268.2204,719.6769 L1268.2204,729.6769 L1278.2204,729.6769 L1268.2204,719.6769 " fill="#714137" style="stroke:#E7E7E7;stroke-width:1;"/><text fill="#FFFFFF" font-family="sans-serif" font-size="13" lengthAdjust="spacing" textLength="393.4404" x="869.78" y="736.7438">- Weighted scoring of tasks (urgency, importance, due date)</text><text fill="#FFFFFF" font-family="sans-serif" font-size="13" lengthAdjust="spacing" textLength="319.5728" x="869.78" y="751.8766">- Potential ML-based or heuristic-based approach</text></g><g id="elem_NLP_eng"><path d="M1466.11,727.2469 L1466.11,752.3797 L1907.8834,752.3797 L1907.8834,737.2469 L1897.8834,727.2469 L1466.11,727.2469 " fill="#714137" style="stroke:#E7E7E7;stroke-width:0.5;"/><path d="M1897.8834,727.2469 L1897.8834,737.2469 L1907.8834,737.2469 L1897.8834,727.2469 " fill="#714137" style="stroke:#E7E7E7;stroke-width:1;"/><text fill="#FFFFFF" font-family="sans-serif" font-size="13" lengthAdjust="spacing" textLength="420.7734" x="1472.11" y="744.3138">- Classifies user queries into "Create Task", "Check Grades", etc.</text></g><g id="elem_Entit_ex"><path d="M2015.09,727.2469 L2015.09,752.3797 L2384.9128,752.3797 L2384.9128,737.2469 L2374.9128,727.2469 L2015.09,727.2469 " fill="#714137" style="stroke:#E7E7E7;stroke-width:0.5;"/><path d="M2374.9128,727.2469 L2374.9128,737.2469 L2384.9128,737.2469 L2374.9128,727.2469 " fill="#714137" style="stroke:#E7E7E7;stroke-width:1;"/><text fill="#FFFFFF" font-family="sans-serif" font-size="13" lengthAdjust="spacing" textLength="348.8228" x="2021.09" y="744.3138">- Identifies details: task name, date/time, course, etc.</text></g><g id="elem_Notif_note"><path d="M3486.48,488.4169 L3486.48,528.6825 L3797.5108,528.6825 L3797.5108,498.4169 L3787.5108,488.4169 L3486.48,488.4169 " fill="#714137" style="stroke:#E7E7E7;stroke-width:0.5;"/><path d="M3787.5108,488.4169 L3787.5108,498.4169 L3797.5108,498.4169 L3787.5108,488.4169 " fill="#714137" style="stroke:#E7E7E7;stroke-width:1;"/><text fill="#FFFFFF" font-family="sans-serif" font-size="13" lengthAdjust="spacing" textLength="189.9155" x="3492.48" y="505.4838">- Manages push &amp; SMS alerts</text><text fill="#FFFFFF" font-family="sans-serif" font-size="13" lengthAdjust="spacing" textLength="290.0308" x="3492.48" y="520.6166">- Triggers reminders for upcoming deadlines</text></g><g id="elem_ELT_p"><path d="M2572.39,719.6769 L2572.39,759.9425 L2851.6063,759.9425 L2851.6063,729.6769 L2841.6063,719.6769 L2572.39,719.6769 " fill="#714137" style="stroke:#E7E7E7;stroke-width:0.5;"/><path d="M2841.6063,719.6769 L2841.6063,729.6769 L2851.6063,729.6769 L2841.6063,719.6769 " fill="#714137" style="stroke:#E7E7E7;stroke-width:1;"/><text fill="#FFFFFF" font-family="sans-serif" font-size="13" lengthAdjust="spacing" textLength="146.5293" x="2578.39" y="736.7438">- Extract data from DB</text><text fill="#FFFFFF" font-family="sans-serif" font-size="13" lengthAdjust="spacing" textLength="258.2163" x="2578.39" y="751.8766">- Transform/clean for Foundry ingestion</text></g><g id="elem_Anal_Fbk"><path d="M2958.95,719.6769 L2958.95,759.9425 L3339.0496,759.9425 L3339.0496,729.6769 L3329.0496,719.6769 L2958.95,719.6769 " fill="#714137" style="stroke:#E7E7E7;stroke-width:0.5;"/><path d="M3329.0496,719.6769 L3329.0496,729.6769 L3339.0496,729.6769 L3329.0496,719.6769 " fill="#714137" style="stroke:#E7E7E7;stroke-width:1;"/><text fill="#FFFFFF" font-family="sans-serif" font-size="13" lengthAdjust="spacing" textLength="359.0996" x="2964.95" y="736.7438">- Retrieves aggregated insights/analytics from Foundry</text><text fill="#FFFFFF" font-family="sans-serif" font-size="13" lengthAdjust="spacing" textLength="311.9619" x="2964.95" y="751.8766">- Could inform advanced scheduling/forecasting</text></g><g id="elem_DB_note"><path d="M4556.71,727.2469 L4556.71,752.3797 L4919.2901,752.3797 L4919.2901,737.2469 L4909.2901,727.2469 L4556.71,727.2469 " fill="#714137" style="stroke:#E7E7E7;stroke-width:0.5;"/><path d="M4909.2901,727.2469 L4909.2901,737.2469 L4919.2901,737.2469 L4909.2901,727.2469 " fill="#714137" style="stroke:#E7E7E7;stroke-width:1;"/><text fill="#FFFFFF" font-family="sans-serif" font-size="13" lengthAdjust="spacing" textLength="341.5801" x="4562.71" y="744.3138">- Stores tasks, events, user profiles, grade data, etc.</text></g><!--entity Canvas--><g id="elem_Canvas"><rect fill="#FFE0B2" height="52.5938" rx="2.5" ry="2.5" style="stroke:#E7E7E7;stroke-width:0.5;" width="97.9844" x="5919.01" y="713.5169"/><text fill="#FFFFFF" font-family="sans-serif" font-size="14" font-style="italic" lengthAdjust="spacing" textLength="75.2295" x="5930.3874" y="736.512">&#171;external&#187;</text><text fill="#FFFFFF" font-family="sans-serif" font-size="14" lengthAdjust="spacing" textLength="77.9844" x="5929.01" y="752.8089">Canvas API</text></g><!--entity Gradescope--><g id="elem_Gradescope"><rect fill="#FFE0B2" height="52.5938" rx="2.5" ry="2.5" style="stroke:#E7E7E7;stroke-width:0.5;" width="130.3389" x="6051.83" y="713.5169"/><text fill="#FFFFFF" font-family="sans-serif" font-size="14" font-style="italic" lengthAdjust="spacing" textLength="75.2295" x="6079.3847" y="736.512">&#171;external&#187;</text><text fill="#FFFFFF" font-family="sans-serif" font-size="14" lengthAdjust="spacing" textLength="110.3389" x="6061.83" y="752.8089">Gradescope API</text></g><!--entity GCal--><g id="elem_GCal"><rect fill="#FFE0B2" height="52.5938" rx="2.5" ry="2.5" style="stroke:#E7E7E7;stroke-width:0.5;" width="163.3701" x="6217.31" y="713.5169"/><text fill="#FFFFFF" font-family="sans-serif" font-size="14" font-style="italic" lengthAdjust="spacing" textLength="75.2295" x="6261.3803" y="736.512">&#171;external&#187;</text><text fill="#FFFFFF" font-family="sans-serif" font-size="14" lengthAdjust="spacing" textLength="143.3701" x="6227.31" y="752.8089">Google Calendar API</text></g><!--entity Maps--><g id="elem_Maps"><rect fill="#FFE0B2" height="52.5938" rx="2.5" ry="2.5" style="stroke:#E7E7E7;stroke-width:0.5;" width="97.2295" x="6415.39" y="713.5169"/><text fill="#FFFFFF" font-family="sans-serif" font-size="14" font-style="italic" lengthAdjust="spacing" textLength="75.2295" x="6426.39" y="736.512">&#171;external&#187;</text><text fill="#FFFFFF" font-family="sans-serif" font-size="14" lengthAdjust="spacing" textLength="63.4375" x="6432.286" y="752.8089">Maps API</text></g><!--entity Twilio--><g id="elem_Twilio"><rect fill="#FFE0B2" height="52.5938" rx="2.5" ry="2.5" style="stroke:#E7E7E7;stroke-width:0.5;" width="97.2295" x="5035.39" y="713.5169"/><text fill="#FFFFFF" font-family="sans-serif" font-size="14" font-style="italic" lengthAdjust="spacing" textLength="75.2295" x="5046.39" y="736.512">&#171;external&#187;</text><text fill="#FFFFFF" font-family="sans-serif" font-size="14" lengthAdjust="spacing" textLength="40.2363" x="5063.8866" y="752.8089">Twilio</text></g><g id="elem_Firebase_FCM"><path d="M5180.78,727.2469 L5180.78,752.3797 L5419.219,752.3797 L5419.219,737.2469 L5409.219,727.2469 L5180.78,727.2469 " fill="#714137" style="stroke:#E7E7E7;stroke-width:0.5;"/><path d="M5409.219,727.2469 L5409.219,737.2469 L5419.219,737.2469 L5409.219,727.2469 " fill="#714137" style="stroke:#E7E7E7;stroke-width:1;"/><text fill="#FFFFFF" font-family="sans-serif" font-size="13" lengthAdjust="spacing" textLength="217.439" x="5186.78" y="744.3138">- Push notifications (web, mobile)</text></g><g id="elem_PLTR_FDRY"><path d="M5526.97,719.6769 L5526.97,759.9425 L5849.033,759.9425 L5849.033,729.6769 L5839.033,719.6769 L5526.97,719.6769 " fill="#714137" style="stroke:#E7E7E7;stroke-width:0.5;"/><path d="M5839.033,719.6769 L5839.033,729.6769 L5849.033,729.6769 L5839.033,719.6769 " fill="#714137" style="stroke:#E7E7E7;stroke-width:1;"/><text fill="#FFFFFF" font-family="sans-serif" font-size="13" lengthAdjust="spacing" textLength="301.063" x="5532.97" y="736.7438">- Central data platform for advanced analytics</text><text fill="#FFFFFF" font-family="sans-serif" font-size="13" lengthAdjust="spacing" textLength="213.8208" x="5532.97" y="751.8766">- Data governance &amp; compliance</text></g><!--link FE to BE--><g id="link_FE_BE"><path d="M4200,233.8992 C4200,242.9112 4200,252.4844 4200,262.0569 C4200,271.6294 4200,281.2012 4200,290.2108 C4200,292.4632 4200,294.6804 4200,296.8537 C4200,297.397 4200,291.9376 4200,292.4753 " fill="#FFFFFF" fill-opacity="0.00000" id="FE-to-BE" style="stroke:#E7E7E7;stroke-width:1;"/><polygon fill="#E7E7E7" points="4200,298.4753,4204,289.4753,4200,293.4753,4196,289.4753,4200,298.4753" style="stroke:#E7E7E7;stroke-width:1;"/><text fill="#FFFFFF" font-family="sans-serif" font-size="13" lengthAdjust="spacing" textLength="148.3511" x="4201" y="270.7638">HTTP/RESTful requests</text></g><!--link BE to SchedEng--><g id="link_BE_SchedEng"><path d="M4199.55,342.4169 C4174.25,342.6469 3089.56,352.6669 2220,372.4169 C2036.41,376.5869 1558.49,315.7769 1394,397.4169 C1366.255,411.1869 1344.2625,438.0819 1329.08,461.8456 C1328.6055,462.5882 1328.1377,463.3278 1327.6766,464.0638 C1327.4461,464.4318 1330.3808,459.7007 1330.1535,460.0669 " fill="#FFFFFF" fill-opacity="0.00000" id="BE-to-SchedEng" style="stroke:#E7E7E7;stroke-width:1;"/><polygon fill="#E7E7E7" points="1326.99,465.1651,1335.1341,459.6268,1329.6263,460.9166,1328.3365,455.4087,1326.99,465.1651" style="stroke:#E7E7E7;stroke-width:1;"/><text fill="#FFFFFF" font-family="sans-serif" font-size="13" lengthAdjust="spacing" textLength="300.8535" x="2221" y="385.4838">Scheduling requests (create/update schedule)</text></g><!--link BE to NLPEng--><g id="link_BE_NLPEng"><path d="M4199.34,342.4169 C4162.16,342.4069 2575.56,342.5469 2500,397.4169 C2479.26,412.4769 2469.245,439.3919 2464.4225,462.8431 C2464.2718,463.576 2465.2685,458.4152 2465.1278,459.1408 " fill="#FFFFFF" fill-opacity="0.00000" id="BE-to-NLPEng" style="stroke:#E7E7E7;stroke-width:1;"/><polygon fill="#E7E7E7" points="2463.9854,465.0311,2469.6258,456.9573,2464.9374,460.1225,2461.7722,455.4341,2463.9854,465.0311" style="stroke:#E7E7E7;stroke-width:1;"/><text fill="#FFFFFF" font-family="sans-serif" font-size="13" lengthAdjust="spacing" textLength="246.9365" x="2675" y="385.4838">User queries (intent/entity extraction)</text></g><!--link BE to Notif--><g id="link_BE_Notif"><path d="M4199.51,342.4969 C4189.38,344.0869 4025.28,369.8369 3893,389.4169 C3880.56,391.2569 3845.41,388.0669 3837,397.4169 C3832.9688,401.8969 3829.8691,406.9419 3827.5327,412.345 C3826.3645,415.0466 3825.3872,417.8377 3824.5797,420.6924 C3824.1759,422.1198 3823.8146,423.5631 3823.4931,425.0191 C3823.3324,425.7471 3823.1816,426.4782 3823.0404,427.2122 C3822.9698,427.5791 3822.9016,427.9468 3822.8358,428.3151 C3822.8029,428.4993 3823.7876,422.7704 3823.7559,422.9549 " fill="#FFFFFF" fill-opacity="0.00000" id="BE-to-Notif" style="stroke:#E7E7E7;stroke-width:1;"/><polygon fill="#E7E7E7" points="3822.7389,428.868,3828.2066,420.6763,3823.5864,423.9404,3820.3223,419.3202,3822.7389,428.868" style="stroke:#E7E7E7;stroke-width:1;"/><text fill="#FFFFFF" font-family="sans-serif" font-size="13" lengthAdjust="spacing" textLength="141.1084" x="4004" y="385.4838">Dispatch notifications</text></g><!--link BE to FoundryInt--><g id="link_BE_FoundryInt"><path d="M4199.25,342.4269 C4174.33,342.7769 3535.78,352.3269 3470,397.4169 C3447.705,412.6969 3433.79,439.6144 3425.4075,463.0119 C3424.3597,465.9366 3423.3983,468.8062 3422.5178,471.5913 C3422.4078,471.9395 3422.299,472.2863 3422.1914,472.6317 C3422.1377,472.8044 3423.8553,467.2442 3423.8022,467.4162 " fill="#FFFFFF" fill-opacity="0.00000" id="BE-to-FoundryInt" style="stroke:#E7E7E7;stroke-width:1;"/><polygon fill="#E7E7E7" points="3422.0311,473.1488,3428.5095,465.7306,3423.507,468.3716,3420.866,463.3691,3422.0311,473.1488" style="stroke:#E7E7E7;stroke-width:1;"/><text fill="#FFFFFF" font-family="sans-serif" font-size="13" lengthAdjust="spacing" textLength="167.1147" x="3573" y="385.4838">Push/pull data to Foundry</text></g><!--link SchedEng to TimeBlock--><g id="link_SchedEng_TimeBlock"><path d="M1304.86,509.5569 C1293.06,510.1069 537.56,545.4669 463,601.6769 C437.125,621.1869 423.155,654.7119 415.6387,683.7306 C415.5213,684.184 415.4054,684.6364 415.2911,685.0875 C415.234,685.3131 416.6357,679.7183 416.5794,679.9433 " fill="#FFFFFF" fill-opacity="0.00000" id="SchedEng-to-TimeBlock" style="stroke:#E7E7E7;stroke-width:1;"/><polygon fill="#E7E7E7" points="415.1208,685.7633,421.1886,678.0056,416.3363,680.9133,413.4286,676.061,415.1208,685.7633" style="stroke:#E7E7E7;stroke-width:1;"/><text fill="#FFFFFF" font-family="sans-serif" font-size="13" lengthAdjust="spacing" textLength="164.2837" x="533" y="589.7438">Coordinate time-blocking</text></g><!--link SchedEng to ConflictResolver--><g id="link_SchedEng_ConflictResolver"><path d="M1304.93,509.5569 C1299.12,509.9569 927.21,536.1669 848,601.6769 C823.03,622.3319 809.075,655.8769 801.34,684.6194 C801.0983,685.5176 800.8626,686.4111 800.6329,687.2994 C800.5181,687.7435 800.4047,688.1864 800.2928,688.6278 C800.2368,688.8485 801.6419,683.2494 801.5866,683.4695 " fill="#FFFFFF" fill-opacity="0.00000" id="SchedEng-to-ConflictResolver" style="stroke:#E7E7E7;stroke-width:1;"/><polygon fill="#E7E7E7" points="800.126,689.289,806.1966,681.5335,801.3432,684.4394,798.4373,679.586,800.126,689.289" style="stroke:#E7E7E7;stroke-width:1;"/><text fill="#FFFFFF" font-family="sans-serif" font-size="13" lengthAdjust="spacing" textLength="207.0605" x="890" y="589.7438">Check &amp; fix scheduling conflicts</text></g><!--link SchedEng to TaskPri--><g id="link_SchedEng_TaskPri"><path d="M1304.98,509.6569 C1304.62,511.8669 1298.73,547.6269 1297,576.6769 C1295.9425,594.4769 1296.435,613.3356 1297.7786,631.6539 C1298.4504,640.813 1299.335,649.8371 1300.3449,658.5261 C1300.4081,659.0691 1299.7651,653.6526 1299.8292,654.193 " fill="#FFFFFF" fill-opacity="0.00000" id="SchedEng-to-TaskPri" style="stroke:#E7E7E7;stroke-width:1;"/><polygon fill="#E7E7E7" points="1300.5358,660.1513,1303.4481,650.7429,1299.947,655.1861,1295.5038,651.6849,1300.5358,660.1513" style="stroke:#E7E7E7;stroke-width:1;"/><text fill="#FFFFFF" font-family="sans-serif" font-size="13" lengthAdjust="spacing" textLength="95.5068" x="1298" y="589.7438">Prioritize tasks</text></g><!--link NLPEng to IntentClf--><g id="link_NLPEng_IntentClf"><path d="M2459.93,509.5569 C2454.07,509.9469 2078.93,535.6869 1999,601.6769 C1974.015,622.3069 1960.0575,655.8494 1952.325,684.5969 C1952.0834,685.4952 1951.8478,686.3889 1951.6182,687.2774 C1951.5034,687.7216 1951.39,688.1645 1951.2782,688.6061 C1951.2222,688.8268 1952.6264,683.2276 1952.5712,683.4476 " fill="#FFFFFF" fill-opacity="0.00000" id="NLPEng-to-IntentClf" style="stroke:#E7E7E7;stroke-width:1;"/><polygon fill="#E7E7E7" points="1951.1115,689.2673,1957.1809,681.511,1952.3279,684.4176,1949.4213,679.5646,1951.1115,689.2673" style="stroke:#E7E7E7;stroke-width:1;"/><text fill="#FFFFFF" font-family="sans-serif" font-size="13" lengthAdjust="spacing" textLength="124.9854" x="2041" y="589.7438">Classify user intent</text></g><!--link NLPEng to EntityExt--><g id="link_NLPEng_EntityExt"><path d="M2459.9,509.5469 C2455.72,509.3869 2321.61,504.9969 2271,576.6769 C2266.64,582.8569 2265.82,588.1769 2271,593.6769 C2290.83,614.7669 2379.77,582.0069 2401,601.6769 C2412.1075,611.9694 2418.8988,625.5013 2422.8255,640.0548 C2424.7888,647.3316 2426.0361,654.8639 2426.7486,662.3743 C2426.9268,664.2519 2426.706,660.1393 2426.8202,662.0099 " fill="#FFFFFF" fill-opacity="0.00000" id="NLPEng-to-EntityExt" style="stroke:#E7E7E7;stroke-width:1;"/><polygon fill="#E7E7E7" points="2427.1856,667.9987,2430.63,658.7718,2426.8811,663.008,2422.6449,659.2591,2427.1856,667.9987" style="stroke:#E7E7E7;stroke-width:1;"/><text fill="#FFFFFF" font-family="sans-serif" font-size="13" lengthAdjust="spacing" textLength="227.0684" x="2272" y="589.7438">Extract entities (date, course, etc.)</text></g><!--link FoundryInt to FoundryETL--><g id="link_FoundryInt_FoundryETL"><path d="M3413.93,509.5569 C3407.95,509.9369 3024.74,534.4769 2943,601.6769 C2917.97,622.2569 2904.0125,655.7994 2896.2913,684.5594 C2896.05,685.4581 2895.8148,686.3522 2895.5855,687.2411 C2895.4709,687.6855 2895.3577,688.1286 2895.2461,688.5704 C2895.1902,688.7913 2896.5915,683.1913 2896.5363,683.4115 " fill="#FFFFFF" fill-opacity="0.00000" id="FoundryInt-to-FoundryETL" style="stroke:#E7E7E7;stroke-width:1;"/><polygon fill="#E7E7E7" points="2895.0796,689.232,2901.145,681.4724,2896.2936,684.3816,2893.3844,679.5301,2895.0796,689.232" style="stroke:#E7E7E7;stroke-width:1;"/><text fill="#FFFFFF" font-family="sans-serif" font-size="13" lengthAdjust="spacing" textLength="146.834" x="2986" y="589.7438">Prepare &amp; upload data</text></g><!--link FoundryInt to FoundryAnalytics--><g id="link_FoundryInt_FoundryAnalytics"><path d="M3413.92,509.5469 C3410.46,509.6969 3299.56,514.9069 3259,576.6769 C3254.85,582.9969 3253.88,588.1169 3259,593.6769 C3273.5,609.4369 3339.46,586.9669 3355,601.6769 C3360.4975,606.8844 3364.44,617.8344 3367.2598,631.385 C3368.6698,638.1603 3369.799,645.5858 3370.7017,653.2687 C3370.9273,655.1894 3371.1388,657.1262 3371.337,659.073 C3371.3865,659.5597 3370.849,654.0757 3370.8969,654.5635 " fill="#FFFFFF" fill-opacity="0.00000" id="FoundryInt-to-FoundryAnalytics" style="stroke:#E7E7E7;stroke-width:1;"/><polygon fill="#E7E7E7" points="3371.4831,660.5348,3374.5847,651.1871,3370.9946,655.5587,3366.623,651.9687,3371.4831,660.5348" style="stroke:#E7E7E7;stroke-width:1;"/><text fill="#FFFFFF" font-family="sans-serif" font-size="13" lengthAdjust="spacing" textLength="153.188" x="3260" y="589.7438">Pull advanced analytics</text></g><!--link SchedEng to DB--><g id="link_SchedEng_DB"><path d="M1362.3856,554.4714 C1362.5452,554.564 1362.705,554.6564 1362.8649,554.7486 C1363.1848,554.933 1363.5054,555.1167 1363.8266,555.2995 C1364.4689,555.6651 1365.1139,556.0276 1365.7614,556.3865 C1367.0562,557.1044 1368.3609,557.8083 1369.6743,558.4961 C1372.301,559.8717 1374.9623,561.1829 1377.649,562.4126 C1383.0225,564.872 1388.4975,567.0056 1394,568.6769 C1456.46,587.6569 3680.12,563.2469 3744,576.6769 C3762.5,580.5669 3764.5,589.7569 3783,593.6769 C3798.65,596.9969 4922.93,591.1769 4935,601.6769 C4946.43,611.6319 4953.4456,624.9925 4957.5273,639.4797 C4958.5478,643.1015 4959.3848,646.7937 4960.0617,650.5207 C4960.1463,650.9866 4960.2284,651.453 4960.308,651.9199 C4960.3478,652.1533 4959.4092,646.4671 4959.4478,646.7008 " fill="#FFFFFF" fill-opacity="0.00000" id="SchedEng-to-DB" style="stroke:#E7E7E7;stroke-width:1;"/><polygon fill="#E7E7E7" points="4960.4256,652.6206,4962.9055,643.089,4959.6108,647.6874,4955.0124,644.3927,4960.4256,652.6206" style="stroke:#E7E7E7;stroke-width:1;"/><text fill="#FFFFFF" font-family="sans-serif" font-size="13" lengthAdjust="spacing" textLength="173.9766" x="3784" y="589.7438">Fetch/store tasks &amp; events</text></g><!--link SchedEng to Redis--><g id="link_SchedEng_Redis"><path d="M1362.3856,554.4672 C1362.5452,554.5598 1362.705,554.6522 1362.8649,554.7445 C1363.1848,554.9289 1363.5054,555.1125 1363.8266,555.2954 C1364.4689,555.6611 1365.1139,556.0235 1365.7614,556.3825 C1367.0562,557.1004 1368.3609,557.8044 1369.6743,558.4924 C1372.301,559.8682 1374.9623,561.1796 1377.649,562.4097 C1383.0225,564.8698 1388.4975,567.0044 1394,568.6769 C1421.05,576.9069 3401.81,574.4169 3430,576.6769 C3624.02,592.2969 4214.4927,695.8163 4396.6727,728.2163 " fill="#FFFFFF" fill-opacity="0.00000" id="SchedEng-to-Redis" style="stroke:#E7E7E7;stroke-width:1;"/><polygon fill="#E7E7E7" points="4402.58,729.2669,4394.4194,723.7528,4397.6572,728.3914,4393.0186,731.6292,4402.58,729.2669" style="stroke:#E7E7E7;stroke-width:1;"/><text fill="#FFFFFF" font-family="sans-serif" font-size="13" lengthAdjust="spacing" textLength="148.3384" x="3558" y="589.7438">Cache scheduling data</text></g><!--link NLPEng to Redis--><g id="link_NLPEng_Redis"><path d="M2468.1092,530.6468 C2468.1997,530.8373 2468.291,531.0283 2468.3831,531.2199 C2468.5674,531.6032 2468.7548,531.9886 2468.9454,532.376 C2469.3266,533.1508 2469.7206,533.9334 2470.1275,534.7219 C2476.6375,547.3369 2486.445,561.4369 2500,568.6769 C2517.96,578.2769 3945.91,573.3869 3966,576.6769 C3988.3,580.3369 4274.0987,676.9973 4396.6387,718.6173 " fill="#FFFFFF" fill-opacity="0.00000" id="NLPEng-to-Redis" style="stroke:#E7E7E7;stroke-width:1;"/><polygon fill="#E7E7E7" points="4402.32,720.5469,4395.0845,713.865,4397.5856,718.9389,4392.5117,721.44,4402.32,720.5469" style="stroke:#E7E7E7;stroke-width:1;"/><text fill="#FFFFFF" font-family="sans-serif" font-size="13" lengthAdjust="spacing" textLength="161.9478" x="4020" y="589.7438">Cache NLP model results</text></g><!--link NLPEng to DB--><g id="link_NLPEng_DB"><path d="M2468.1059,530.6501 C2468.1964,530.8406 2468.2877,531.0317 2468.3798,531.2233 C2468.564,531.6066 2468.7513,531.9921 2468.9419,532.3795 C2469.323,533.1544 2469.717,533.9371 2470.1237,534.7256 C2476.6325,547.3419 2486.44,561.4419 2500,568.6769 C2520.71,579.7369 4167.03,571.8369 4190,576.6769 C4208.5,580.5869 4210.51,589.7169 4229,593.6769 C4248.18,597.7969 4920.24,588.7669 4935,601.6769 C4946.41,611.6569 4953.4156,625.03 4957.4936,639.5219 C4958.5131,643.1448 4959.3496,646.8377 4960.0262,650.565 C4960.1108,651.0309 4960.1929,651.4974 4960.2725,651.9643 C4960.3123,652.1977 4959.3739,646.5115 4959.4125,646.7452 " fill="#FFFFFF" fill-opacity="0.00000" id="NLPEng-to-DB" style="stroke:#E7E7E7;stroke-width:1;"/><polygon fill="#E7E7E7" points="4960.3901,652.665,4962.8702,643.1335,4959.5754,647.7318,4954.9771,644.437,4960.3901,652.665" style="stroke:#E7E7E7;stroke-width:1;"/><text fill="#FFFFFF" font-family="sans-serif" font-size="13" lengthAdjust="spacing" textLength="175.0557" x="4230" y="589.7438">Optionally log user queries</text></g><!--link FoundryInt to DB--><g id="link_FoundryInt_DB"><path d="M3422.1434,523.2109 C3422.2545,523.3801 3422.3668,523.5503 3422.48,523.7214 C3422.933,524.4062 3423.4028,525.1069 3423.889,525.8215 C3425.8337,528.6798 3428.0409,531.7597 3430.4888,534.9281 C3440.28,547.6019 3453.92,561.6919 3470,568.6769 C3499.33,581.4169 4589.47,571.3569 4621,576.6769 C4644.14,580.5869 4647.9,589.4969 4671,593.6769 C4685.44,596.2969 4924.05,591.9169 4935,601.6769 C4946.315,611.7644 4953.2719,625.1925 4957.3305,639.7061 C4958.3451,643.3345 4959.1786,647.0307 4959.8538,650.7596 C4959.9382,651.2257 4960.0201,651.6923 4960.0996,652.1594 C4960.1394,652.3929 4959.2024,646.7064 4959.241,646.9402 " fill="#FFFFFF" fill-opacity="0.00000" id="FoundryInt-to-DB" style="stroke:#E7E7E7;stroke-width:1;"/><polygon fill="#E7E7E7" points="4960.217,652.8603,4962.6997,643.3294,4959.4036,647.9269,4954.8062,644.6309,4960.217,652.8603" style="stroke:#E7E7E7;stroke-width:1;"/><text fill="#FFFFFF" font-family="sans-serif" font-size="13" lengthAdjust="spacing" textLength="144.2061" x="4672" y="589.7438">Extract user/task data</text></g><!--link FoundryInt to Redis--><g id="link_FoundryInt_Redis"><path d="M3422.1456,523.2019 C3422.2568,523.3711 3422.3691,523.5412 3422.4823,523.7124 C3422.9355,524.3969 3423.4053,525.0975 3423.8916,525.8118 C3425.8367,528.6694 3428.0444,531.7488 3430.4925,534.9169 C3440.285,547.5894 3453.925,561.6819 3470,568.6769 C3493.99,579.1269 4391.28,560.6969 4412,576.6769 C4453.68,608.8369 4458.5914,670.2483 4457.7814,707.2183 " fill="#FFFFFF" fill-opacity="0.00000" id="FoundryInt-to-Redis" style="stroke:#E7E7E7;stroke-width:1;"/><polygon fill="#E7E7E7" points="4457.65,713.2169,4461.8462,704.3067,4457.7595,708.2181,4453.8481,704.1314,4457.65,713.2169" style="stroke:#E7E7E7;stroke-width:1;"/><text fill="#FFFFFF" font-family="sans-serif" font-size="13" lengthAdjust="spacing" textLength="138.8359" x="4429" y="589.7438">Intermediate caching</text></g><!--link FoundryInt to Palantir--><g id="link_FoundryInt_Palantir"><path d="M3422.1367,523.2154 C3422.2478,523.3846 3422.36,523.5549 3422.4732,523.7261 C3422.9262,524.4111 3423.3958,525.112 3423.8819,525.8268 C3425.8263,528.6859 3428.0334,531.7666 3430.4813,534.9356 C3440.2725,547.6119 3453.915,561.7019 3470,568.6769 C3504.43,583.6169 4784.28,568.9169 4821,576.6769 C4839.5,580.5969 4841.5,589.7469 4860,593.6769 C4873.65,596.5869 5854.51,592.4669 5865,601.6769 C5870.69,606.6744 5874.73,617.5175 5877.5875,631.0264 C5879.0163,637.7809 5880.1494,645.2018 5881.0453,652.8916 C5881.2693,654.8141 5881.4785,656.7534 5881.6737,658.7032 C5881.7225,659.1907 5881.195,653.7065 5881.2421,654.1952 " fill="#FFFFFF" fill-opacity="0.00000" id="FoundryInt-to-Palantir" style="stroke:#E7E7E7;stroke-width:1;"/><polygon fill="#E7E7E7" points="5881.8175,660.1675,5884.9359,650.8254,5881.338,655.1906,5876.9728,651.5927,5881.8175,660.1675" style="stroke:#E7E7E7;stroke-width:1;"/><text fill="#FFFFFF" font-family="sans-serif" font-size="13" lengthAdjust="spacing" textLength="167.686" x="4861" y="589.7438">Upload data / get insights</text></g><!--link Notif to FCM--><g id="link_Notif_FCM"><path d="M3828.4651,552.7124 C3828.4864,552.8085 3828.508,552.9044 3828.5299,553.0002 C3828.5737,553.1919 3828.6188,553.3831 3828.6652,553.5738 C3828.758,553.9553 3828.8562,554.3348 3828.9598,554.7121 C3829.1671,555.4668 3829.3962,556.2128 3829.6486,556.9484 C3830.1534,558.4195 3830.7511,559.8489 3831.4529,561.2223 C3832.8566,563.9691 3834.6763,566.4919 3837,568.6769 C3843.73,575.0069 5157.78,576.2269 5167,576.6769 C5226.74,579.6369 5391.62,560.4969 5435,601.6769 C5445.9925,612.1144 5452.7856,625.72 5456.7806,640.3023 C5458.7781,647.5935 5460.0761,655.1289 5460.8497,662.6345 C5460.9464,663.5727 5461.0349,664.5104 5461.1155,665.4471 C5461.1559,665.9155 5461.1942,666.3836 5461.2307,666.8514 C5461.2489,667.0853 5460.8246,661.3355 5460.8419,661.5692 " fill="#FFFFFF" fill-opacity="0.00000" id="Notif-to-FCM" style="stroke:#E7E7E7;stroke-width:1;"/><polygon fill="#E7E7E7" points="5461.2839,667.5529,5464.61,658.2826,5460.9155,662.5665,5456.6317,658.8721,5461.2839,667.5529" style="stroke:#E7E7E7;stroke-width:1;"/><text fill="#FFFFFF" font-family="sans-serif" font-size="13" lengthAdjust="spacing" textLength="152.3882" x="5423" y="589.7438">Send push notifications</text></g><!--link Notif to Twilio--><g id="link_Notif_Twilio"><path d="M3828.4693,552.7124 C3828.4906,552.8085 3828.5121,552.9044 3828.534,553.0002 C3828.5778,553.1919 3828.6229,553.3831 3828.6693,553.5738 C3828.7621,553.9553 3828.8602,554.3348 3828.9638,554.7121 C3829.171,555.4668 3829.4,556.2128 3829.6523,556.9484 C3830.1568,558.4195 3830.7544,559.8489 3831.4558,561.2223 C3832.8588,563.9691 3834.6775,566.4919 3837,568.6769 C3849.14,580.1069 5023.71,566.6269 5037,576.6769 C5079.19,608.5969 5085.2646,670.1069 5085.1746,707.1569 " fill="#FFFFFF" fill-opacity="0.00000" id="Notif-to-Twilio" style="stroke:#E7E7E7;stroke-width:1;"/><polygon fill="#E7E7E7" points="5085.16,713.1569,5089.1819,704.1666,5085.1721,708.1569,5081.1819,704.1472,5085.16,713.1569" style="stroke:#E7E7E7;stroke-width:1;"/><text fill="#FFFFFF" font-family="sans-serif" font-size="13" lengthAdjust="spacing" textLength="105.5171" x="5053" y="589.7438">Send SMS alerts</text></g><!--link BE to Canvas--><g id="link_BE_Canvas"><path d="M4381.7041,349.2859 C4383.6316,349.375 4385.5715,349.4651 4387.5238,349.5563 C4403.1419,350.2859 4419.5493,351.082 4436.6731,351.9494 C4573.6638,358.8881 4756.505,370.3844 4947.88,388.8169 C5330.63,425.6819 5747.515,490.2919 5900,601.6769 C5937.02,628.7169 5953.5808,675.762 5961.3908,707.372 " fill="#FFFFFF" fill-opacity="0.00000" id="BE-to-Canvas" style="stroke:#E7E7E7;stroke-width:1;"/><polygon fill="#E7E7E7" points="5962.83,713.1969,5964.5545,703.5002,5961.6307,708.3428,5956.788,705.4191,5962.83,713.1969" style="stroke:#E7E7E7;stroke-width:1;"/><text fill="#FFFFFF" font-family="sans-serif" font-size="13" lengthAdjust="spacing" textLength="122.478" x="5839" y="513.1138">Fetch assignments</text></g><!--link BE to Gradescope--><g id="link_BE_Gradescope"><path d="M4384.0762,342.8534 C4388.3484,342.8704 4392.681,342.8881 4397.0725,342.9064 C4405.8555,342.9432 4414.8741,342.9827 4424.1164,343.0251 C4442.6008,343.11 4461.9794,343.2068 4482.1552,343.317 C4643.5609,344.1991 4855.9806,345.945 5069.7038,349.4006 C5497.15,356.3119 5929.81,370.0619 5970,397.4169 C6079.89,472.2169 6107.4895,641.729 6114.3195,707.419 " fill="#FFFFFF" fill-opacity="0.00000" id="BE-to-Gradescope" style="stroke:#E7E7E7;stroke-width:1;"/><polygon fill="#E7E7E7" points="6114.94,713.3869,6117.9878,704.0215,6114.4229,708.4137,6110.0307,704.8488,6114.94,713.3869" style="stroke:#E7E7E7;stroke-width:1;"/><text fill="#FFFFFF" font-family="sans-serif" font-size="13" lengthAdjust="spacing" textLength="84.6777" x="6085" y="513.1138">Fetch grades</text></g><!--link BE to GCal--><g id="link_BE_GCal"><path d="M4384.147,344.0519 C4386.0358,344.07 4387.9363,344.0883 4389.8486,344.1068 C4393.6732,344.1437 4397.5445,344.1812 4401.4616,344.2193 C4409.2958,344.2954 4417.313,344.374 4425.505,344.455 C4556.5763,345.7506 4732.375,347.6594 4918.835,350.1719 C5291.755,355.1969 5707.32,362.6369 5893,372.4169 C6019.98,379.0969 6077.46,319.5769 6178,397.4169 C6280.18,476.5269 6296.0598,642.6209 6298.4398,707.4409 " fill="#FFFFFF" fill-opacity="0.00000" id="BE-to-GCal" style="stroke:#E7E7E7;stroke-width:1;"/><polygon fill="#E7E7E7" points="6298.66,713.4369,6302.3271,704.2962,6298.4765,708.4402,6294.3325,704.5897,6298.66,713.4369" style="stroke:#E7E7E7;stroke-width:1;"/><text fill="#FFFFFF" font-family="sans-serif" font-size="13" lengthAdjust="spacing" textLength="79.2632" x="6277" y="513.1138">Sync events</text></g><!--link BE to Maps--><g id="link_BE_Maps"><path d="M4383.3915,343.8863 C4387.37,343.9207 4391.4021,343.9556 4395.4865,343.9912 C4411.8244,344.1334 4429.0004,344.2852 4446.9417,344.4466 C4590.4722,345.7375 4782.9819,347.6406 4987.1688,350.1494 C5395.5425,355.1669 5850.625,362.6069 6054,372.4169 C6192.51,379.0969 6257.56,309.7469 6365,397.4169 C6463.02,477.3969 6467.7332,642.21 6465.6432,707.09 " fill="#FFFFFF" fill-opacity="0.00000" id="BE-to-Maps" style="stroke:#E7E7E7;stroke-width:1;"/><polygon fill="#E7E7E7" points="6465.45,713.0869,6469.7377,704.2203,6465.611,708.0895,6461.7418,703.9628,6465.45,713.0869" style="stroke:#E7E7E7;stroke-width:1;"/><text fill="#FFFFFF" font-family="sans-serif" font-size="13" lengthAdjust="spacing" textLength="98.5156" x="6454" y="513.1138">Get travel time</text></g><!--SRC=[dLTPRziu47xthnXeWIO1udMnHx4rYWBnbGQ84w_bz7WAQ8cMkP55BKcbSHVzxpj3IfHaEqVRXzIaPiYPRwwFHfYKmqXc6ODmgmtVmF5ipJI7FtjlJlemVZ0yYtaCGxd9PSOp0oF14iKsdSvHz_b_dIFuA7J1KWZDDXLPyZ8jVIUodE4j45NtaZu7nIF3iYJbXqJWlmx0aaLtYP955WzbAjMxTxI1Fhn_3x-yjlyE2QsKp4mfDVnh_6Ruzf0KHpHKnbAIcap6hmU_7PBIHYgMS2SqUJlye_FznM2Dhg-kpY3y4Yx6KpYVNz_CNgRfSO6W6Sm08K4JZs1I-eUB6gxW4r_2AvZAfK35IYG0fc4oXXOeX2n09WrtNs_ffzq3wCASiyZ0yLU-FC7ptEgA6N7FuNXZJp_niaEfEDnSz6u-mqegC4pVwLE8M8eNCNLATuYLY51RPhgXjTaK6Mrp3L-5MKCPLhWN33ui5hEmDn-72wj0swLztvtxWrBuUCAqEPjTdBHnsFjiCHWG1dNsj24Ox40mKsB3r1RlDlWtbmBF9V_mVvioaCf4H5vy_91BZQwGpMIlLT1DH7Iqvd519RE3oIaKcYjWXLdlUWjW_nn1w9LXd2KYioQpscKhrW1WJzu2O7TnVG26ygRM8GknuTr1Ab5IMNtQiEk31zHOUhacf0wdCuHk-ms1iZwl5EUzPQ6te5DfT4ioB9A4QyJGu6cmfECQU7hH5bgK7uzvCvJPAXMOo7EkPNfVkbJjLflFU5Q9xpisuWPBLeF4GrAMjtsPyowB_od8cp8DkFDb8xJ6PloJBYrGZH9LAc74jof8k8bxpuN8IUtxyOcBP6tG9XtXiPWhSkNCW-D29JoBjgSWq0A5xIdYfn0N76AiufFMAJCyDZC2osHwsLqoyX6zNVD22Mr4L6wnF5UIHUkdFRSbJqLmTJbxMVRNWXOHN3wMz0sb2sgD1eOfqngBiqJJxGxJrJDuuXst7ATX4mH_L9dj_nPSqG8xWyHyL1nXiu48Jd6vvbXNvuh5NEEQc-ZN7q-8CM9kjZJa5RPiwLnmcxZtZ0jMxfO_j7ouY2cEreUO6oPItRVf01dRKFJHXHuLA7PyMIZDNs9v7T166uIGgtiHyRrO7f1nKQKF1rtoCI69TePtOSeodEKQyaAlSRQ5qn1mLAb6y-d2GWdiFKeZEza8P4lA5MkHerrK4Z5dCVPMNkcqlFJUJOX2uEoW54A2PHsOIghzNHyVbtIpstt6hozitEF59Sn4pjEg0ieJQF-P7BXStEQj12XpYIBDi5_B3Om6BO65Ofb6U3QzAEKiiqXL3Y5OsCBHdHzFPJiei5MWyPp7P7FJa_hhq_wGtEraURVJZGtMuJqc0KiInHD6xKvacXgVxZ5_jFMslB1TsB98IOEy1XRVKoUC6mE-XnzuXDH3D3h28wNWASq80QQsI4aLbxyXc4bjqCRmxqlh_cW0JJxQfZ2ZGPl2X2Y7JfRy0nr6HbAI3UoxAsHnk4oeuzWB6wMxIxWYcQOutOYjG33diS19Y7tR9PTRDypw0Ney_hmOpw_EBY4SppzU3CVXJtBatrNSdJ65lQzi4JgmuBHfuP1bzvGKimit-zsozGpOLN4DEP8vzsgDhPRgtdNdKf9nmv8ArmVWpZEgKsGGNjukdfQV2CLjmao6KrSdmsbRPOVmb_AtA5TJNcg9BMfgdm2dqAJyhTJODMFnLQH2EXfYV-wOtPQUiPJXSF7jmkhvpIUidrqkvhUJqVnB_PmWcewesYwLfypOqgHMvClJrxLNeeg3X0XRHY8u3SYuLD1YtzUN9_LyV7cskBY-2ZzSpCANANNg5nrqtrVFcmw-shgq7FSXe3UHVHAjYXG74v89f9C1QLQl7LqiQtGLJrqCrmB9wC0TL3q0-gqNGdKO74UMa_IAdEQwfwedGQNlc5GVeGbkcepcM5YQrEEEVt0tC_3sXYhb5MdYWrRed9be9zUyP3tkq4pAoLvUf6LeaJXLoTBf-ESCQVatHxzgkCZufOf5HguGHUdQDmGw7BGrTvy0VQZOs2jOYOT6NyVySA9wvuYIJVVh8O6MUrxkEZ0QN19Hql2yqjxcYEBMzMQ7PT2KzXIEfAk9RC6sw5EqsWGCSUyqQ4C3LkG0_OQDF6UACh_8KybY2tBmYAQVkMJ4Z4AoNrkxKHaDt6N11ArQzsX4b73WdMuYxK1ffua5XGPC4tndMmELIjGB4-_Vo9XJVUWYfRCRufKjA7wTKygnDDtICxx5plUyTseUTPBjMGPy42jdatrCg0t-fkIBq3YRTZkoLQl3DB-fuOSU9DnuFa9fOvckZSHmwdq8gUJplPOTDCHT3-xNuZNRnMFBSdDJq1zh0mMKZqcsSV4f1Ukvrwy54_TWyJ8uskeg2C9j5lambo8qpHeYv-Wh8dkFGQCY3Vu7]--></g></svg>